<svg height="30" viewBox="0 0 30 30" width="30" xmlns="http://www.w3.org/2000/svg"><path d="M10.5 17c-.13.004-.253.058-.344.15L.64 26.652c-.896.893-.776 2.134-.105 2.81.67.674 1.913.795 2.81-.103l9.49-9.49c.492-.472-.25-1.182-.706-.708l-9.49 9.49c-.58.58-1.07.43-1.396.104-.326-.328-.47-.826.102-1.397l9.517-9.503c.326-.318.084-.857-.363-.857zm8.45-14.93c-1.604.213-3.146.91-4.39 2.063-.49.453.21 1.17.68.734 2.18-2.02 5.392-2.445 8.022-1.06.58.332 1.053-.603.465-.885-1.5-.79-3.17-1.064-4.776-.852zM20 0c-5.517 0-10 4.483-10 10s4.483 10 10 10 10-4.483 10-10S25.517 0 20 0zm0 1c4.976 0 9 4.024 9 9s-4.024 9-9 9-9-4.024-9-9 4.024-9 9-9z"/></svg>