<svg height="30" viewBox="0 0 30 30" width="30" xmlns="http://www.w3.org/2000/svg"><path d="M19.5 3c-.528.01-.686.738-.248.947.258.13.482.35.61.61.13.258.174.57.122.853-.05.276-.193.563-.388.84-.197.278-.425.554-.68.863-.256.31-.52.66-.7 1.084-.182.43-.274.934-.146 1.442.103.406.332.747.608 1.014.273.266.586.456.896.604.62.295 1.222.442 1.697.687.468.24.904.612 1.382.998.48.387 1.018.797 1.684 1.03.425.148.712.2 1.014.306.15.052.282.116.384.19.1.074.177.163.217.247.057.116.07.284.023.433-.048.154-.155.31-.3.43-.293.247-.647.368-1.14.406-.498.04-1.063.006-1.672.102-.304.048-.618.132-.92.28-.305.15-.593.368-.81.663-.305.412-.404.85-.515 1.193-.055.17-.11.32-.178.443-.066.122-.146.22-.226.28-.114.09-.313.158-.57.23-.263.073-.597.156-.91.394-.332.25-.53.6-.632.953-.103.348-.098.69-.098 1.002 0 .984.4 1.944.99 2.733.59.788 1.416 1.39 2.346 1.715.63.218.945-.73.328-.946-.74-.257-1.403-.745-1.873-1.37-.47-.627-.79-1.4-.79-2.182 0-.25 0-.478.057-.67.055-.188.16-.348.277-.438.116-.088.315-.156.574-.228.262-.075.598-.16.912-.4.223-.17.378-.383.494-.595.116-.212.19-.42.252-.614.124-.383.218-.703.368-.905.105-.143.262-.268.447-.36.187-.09.404-.152.638-.19.468-.073 1.005-.044 1.593-.09.596-.047 1.266-.185 1.806-.64.273-.23.4-.532.512-.9.114-.372.106-.787-.074-1.162-.127-.263-.222-.468-.432-.62-.21-.153-.43-.253-.645-.327-.425-.148-.81-.203-1.113-.31-.473-.164-.923-.49-1.383-.86-.46-.372-.945-.8-1.55-1.11-.62-.32-1.232-.466-1.724-.7-.245-.118-.463-.255-.63-.418-.167-.162-.287-.356-.335-.545-.06-.237-.02-.53.097-.805.12-.28.318-.558.55-.84.233-.282.503-.574.75-.922.246-.35.445-.758.532-1.236.09-.502.014-1.024-.214-1.48-.228-.457-.575-.83-1.03-1.057C19.65 3.013 19.583 3 19.5 3zm-16 8c-.65 0-.67 1 0 1h1c.246 0 .444.016.578.07.134.054.263.163.35.3.09.14.16.348.242.6.084.26.19.597.476.884.287.286.625.392.883.476.252.082.46.152.6.242.137.087.246.216.3.35.054.134.07.332.07.578v1.7c0 .25.003.566.15.898.15.334.414.595.74.744.32.145.842.156 1.106.158.26.002.248.005.375.04.102.026.207.084.292.165.086.08.16.19.213.315.104.244.125.598.125.98V25c0 .312 0 .648.066 1.008s.196.724.42 1.05c.225.324.533.593.9.762.37.17.708.176 1.114.176.673 0 .667-.992 0-.992-.21 0-.502-.005-.695-.094-.194-.09-.37-.24-.496-.422-.128-.184-.214-.413-.26-.66-.044-.247-.05-.522-.05-.828v-4.5c0-.4-.003-.898-.205-1.373-.1-.236-.247-.46-.445-.648-.2-.19-.444-.334-.72-.408-.333-.088-.41-.07-.626-.072-.21-.002-.587-.017-.7-.068-.104-.048-.198-.142-.242-.24C9.018 17.59 9 17.42 9 17.2v-1.7c0-.273-.003-.605-.143-.95-.14-.348-.388-.63-.69-.82-.294-.19-.588-.273-.83-.35-.234-.077-.404-.154-.483-.234-.08-.08-.157-.25-.233-.484-.077-.24-.16-.535-.35-.83-.19-.3-.472-.55-.82-.69-.345-.14-.677-.142-.95-.142zM15 0C6.722 0 0 6.722 0 15c0 8.278 6.722 15 15 15 8.278 0 15-6.722 15-15 0-8.278-6.722-15-15-15zm0 1c7.738 0 14 6.262 14 14s-6.262 14-14 14S1 22.738 1 15 7.262 1 15 1z"/></svg>