<svg xmlns="http://www.w3.org/2000/svg">
    <symbol id="play" viewBox="0 0 15 15">
        <path d="M7.5,0.5c3.9,0,7,3.1,7,7c0,3.9-3.1,7-7,7c-3.9,0-7-3.1-7-7l0,0C0.5,3.6,3.6,0.5,7.5,0.5 C7.5,0.5,7.5,0.5,7.5,0.5L7.5,0.5L7.5,0.5z M6.1,4.7v5.6l4.2-2.8L6.1,4.7z"/>
    </symbol>
    <symbol id="play-no-space" viewBox="0 0 15 15">
        <path d="M7.5,0C11.7,0,15,3.3,15,7.5S11.7,15,7.5,15S0,11.7,0,7.5l0,0C0,3.3,3.3,0,7.5,0L7.5,0L7.5,0L7.5,0z M6,4.5v6l4.5-3L6,4.5z"/>
    </symbol>
    <symbol id="cross" viewBox="0 0 20 20">
        <path d="M19 4.23L15.75 1 10 6.83 4.12 1 1 4.23l5.88 5.83L1 15.9 4.13 19 10 13.17 15.75 19 19 15.9l-5.88-5.84"/>
    </symbol>
    <symbol id="check" viewBox="0 0 20 20">
        <path d="M10 1c-4.962 0-9 4.038-9 9 0 4.963 4.038 9 9 9 4.963 0 9-4.037 9-9 0-4.962-4.037-9-9-9zm0 16.615c-4.2 0-7.615-3.416-7.615-7.615C2.385 5.8 5.8 2.385 10 2.385c4.2 0 7.615 3.416 7.615 7.615 0 4.2-3.416 7.615-7.615 7.615z"
              fill="currentColor"/>
        <path d="M13.664 6.74l-5.05 5.05-2.278-2.28c-.27-.27-.71-.27-.98 0s-.27.71 0 .98l2.77 2.77c.135.134.312.202.49.202.177 0 .354-.068.49-.203l5.537-5.54c.27-.27.27-.708 0-.98-.27-.27-.708-.27-.98 0z"/>
    </symbol>
    <symbol id="star" viewBox="0 0 20 20">
        <path d="M10 1.45l2.78 5.63 6.22.9-4.5 4.38 1.06 6.2L10 15.62l-5.55 2.92 1.05-6.2L1 8l6.22-.9L10 1.45z"/>
    </symbol>
    <symbol id="heart1" viewBox="0 0 20 20">
        <path d="M18.98 5.7c-.24-2.36-2.24-4.2-4.66-4.2-1.95 0-3.6 1.18-4.32 2.87-.7-1.7-2.37-2.87-4.32-2.87-2.42 0-4.42 1.84-4.66 4.2L1 6.18c0 5.7 6.98 8.38 9 12.17 2.02-3.8 9-6.48 9-12.17 0-.16 0-.32-.02-.48z"/>
    </symbol>
    <symbol id="heart2" viewBox="0 0 500 500">
        <path d="M474.4 142.8c-6-59-55.8-105-116.5-105-48.6 0-90.3 29.5-108 71.7-17.7-42.2-59.4-71.8-108-71.8-60.6 0-110.4 46-116.4 105-.4 4-.6 8-.6 12C25 297 199.5 364.3 250 459c50.5-94.8 225-162 225-304.2 0-4-.2-8-.6-12z"/>
    </symbol>
    <symbol id="hearts" viewBox="0 0 40 20">
        <path d="M28.98 5.7c-.24-2.36-2.24-4.2-4.66-4.2-1.95 0-3.6 1.18-4.32 2.87-.7-1.7-2.37-2.87-4.32-2.87-2.42 0-4.42 1.84-4.66 4.2l-.02.48c0 5.7 6.98 8.38 9 12.17 2.02-3.8 9-6.48 9-12.17 0-.16 0-.32-.02-.48z"/>
        <path d="M15.98 8c-.2-1.96-1.86-3.5-3.88-3.5-1.62 0-3 1-3.6 2.4-.6-1.4-1.98-2.4-3.6-2.4-2.02 0-3.68 1.54-3.88 3.5L1 8.4c0 4.74 5.82 6.98 7.5 10.14 1.68-3.16 7.5-5.4 7.5-10.14 0-.13 0-.27-.02-.4zM38.98 8c-.2-1.96-1.86-3.5-3.88-3.5-1.62 0-3 1-3.6 2.4-.6-1.4-1.98-2.4-3.6-2.4-2.02 0-3.68 1.54-3.88 3.5l-.02.4c0 4.74 5.82 6.98 7.5 10.14 1.68-3.16 7.5-5.4 7.5-10.14 0-.13 0-.27-.02-.4z"/>
    </symbol>
    <symbol id="twitter" viewBox="0 0 20 20">
        <path d="M19 4.74c-.7.3-1.42.5-2.13.58.8-.5 1.34-1.16 1.63-2.05-.73.44-1.5.74-2.34.9C15.43 3.4 14.53 3 13.46 3c-1 0-1.9.36-2.6 1.08-.73.72-1.08 1.6-1.08 2.62 0 .28.02.56.1.85C8.35 7.48 6.93 7.1 5.6 6.4 4.3 5.74 3.18 4.8 2.26 3.68c-.33.58-.5 1.2-.5 1.88 0 .63.14 1.22.44 1.76.3.56.7 1 1.2 1.33-.6-.02-1.15-.18-1.67-.47v.05c0 .9.28 1.7.84 2.37.56.67 1.27 1.1 2.12 1.28-.33.08-.66.12-.98.12-.2 0-.45 0-.7-.05.24.74.67 1.35 1.3 1.83.63.47 1.35.72 2.15.73-1.34 1.06-2.87 1.6-4.58 1.6-.34 0-.63-.03-.9-.06 1.72 1.1 3.6 1.66 5.67 1.66 1.3 0 2.54-.2 3.7-.62 1.14-.42 2.12-.98 2.93-1.68.82-.7 1.52-1.5 2.1-2.4.6-.92 1.04-1.87 1.33-2.86.3-1 .43-2 .43-2.98v-.48c.7-.53 1.33-1.17 1.84-1.92"/>
    </symbol>
</svg>
